<?xml version="1.0" encoding="utf-8"?>
<!-- Generator: Adobe Illustrator 23.0.5, SVG Export Plug-In . SVG Version: 6.00 Build 0)  -->
<svg version="1.1" id="Layer_1" xmlns="http://www.w3.org/2000/svg" xmlns:xlink="http://www.w3.org/1999/xlink" x="0px" y="0px"
	 viewBox="0 0 36 36" style="enable-background:new 0 0 36 36;" xml:space="preserve">
<style type="text/css">
	.st0{fill:#1060D3;}
	.st1{fill:#FFFFFF;}
</style>
<circle class="st0" cx="18.6" cy="18" r="16.9"/>
<path class="st1" d="M10.4,12.8c0.6-1.7,1.1-3.4,1.8-5c0.3-0.9,0.8-1.7,1.4-2.5c0.6-0.8,1.6-0.9,2.4-0.5c0.5,0.3,0.8,1.1,0.9,1.7
	c0.3,1.9,0.5,3.9,0.8,5.9c0.9,4.8,1.9,9.6,2.8,14.4c0.2,0.9,0.1,1.6-0.7,2.2c-1.4,0.9-2.5,0.6-2.9-1.1c-0.4-1.5-0.5-3-0.8-4.5
	c-0.3-1.5-0.3-1.4-1.7-1.4c-2.3,0-3.9,0.7-4.4,3.3c-0.2,1-0.7,1.9-1.2,2.8c-0.6,1.1-1.5,1.4-2.5,0.9c-1-0.4-1.2-1-0.8-2.3
	C7.1,22.2,8.8,17.5,10.4,12.8 M14.3,13.9c-0.1-0.2-0.2-0.5-0.3-0.7c-0.1,0-0.2,0-0.3,0c-0.6,1.9-1.1,3.8-1.7,6
	c0.9-0.1,1.5-0.2,2.1-0.3c0.7-0.1,1-0.5,0.9-1.3C14.7,16.3,14.6,15.2,14.3,13.9z"/>
<path class="st1" d="M32.5,21.9c-0.7,4.6-3.5,7-8.3,7.2c-0.6,0-1.2,0.1-1.8,0c-1-0.1-1.7-0.7-1.8-1.7c-0.2-1,0.3-1.8,1.3-2.1
	c0.9-0.2,1.8-0.3,2.7-0.5c0.6-0.1,1.3-0.1,1.9-0.3c1-0.3,1.6-1.1,1.7-2.2c0.1-1.1-0.6-1.7-1.5-2c-0.9-0.4-1.8-0.7-2.7-1.1
	c-2.8-1-4.5-3-4.9-6c-0.4-3,0.7-5.4,3.2-7.1c1.5-1.1,3.1-1.8,5.1-1.4c2.9,0.6,4,2.4,4.9,5.1c0.3,1-0.2,1.9-1.1,2.6
	c-0.7,0.5-1.4,0.5-2-0.3c-0.5-0.7-0.9-1.4-1.5-2.1C27,8.9,26.2,8.7,25,9.4c-1.4,0.7-2,2-1.6,3.2c0.4,1.2,1.2,2.1,2.4,2.5
	c0.9,0.4,1.7,0.7,2.6,1C31,17.1,32.4,19,32.5,21.9z"/>
</svg>
